#!OML:ASF H:\Terrain\Patient Classification 1\Walking\liu\liu.ASF
:FULLY-SPECIFIED
:DEGREES
356
root 18.538660 34.158401 28.336599 13.181800 17.057440 -4.360540
lowerback -12.450740 -4.349580 -1.896122
upperback -2.927240 -5.805020 5.771700
thorax 4.351340 -2.916520 6.547320
lowerneck -39.034801 -12.031680 -26.646799
upperneck 40.917198 -15.747860 28.216600
head 21.931000 -6.105740 12.350860
rclavicle 0.000000 0.000000
rhumerus -83.311798 25.437201 -169.794601
rradius 78.617599
rwrist -45.498402
rhand -61.137600 -56.585800
rfingers 14.250040
rthumb -7.733460 -116.475197
lclavicle 0.000000 0.000000
lhumerus -75.937401 -42.880001 199.355194
lradius 50.547001
lwrist 14.441120
lhand -20.145800 -39.533798
lfingers 14.250040
lthumb 31.826799 19.198540
rfemur -46.146198 8.426900 53.827599
rtibia 65.546997
rfoot -28.981199 2.643160
rtoes -22.412600
lfemur -32.781399 16.027479 -28.511400
ltibia 128.441803
lfoot -9.176300 22.354799
ltoes -9.798620
357
root 18.531601 34.173801 28.573999 13.050780 16.410419 -4.440000
lowerback -12.273300 -4.008440 -1.779178
upperback -2.633640 -5.361540 5.697500
thorax 4.517240 -2.698740 6.442720
lowerneck -39.671001 -12.149660 -26.576000
upperneck 41.030399 -15.862740 28.184601
head 22.109800 -6.131220 12.308900
rclavicle 0.000000 -0.000000
rhumerus -81.857597 26.941799 -170.047607
rradius 79.182198
rwrist -45.636398
rhand -60.175999 -52.425999
rfingers 14.250040
rthumb -6.804960 -112.331200
lclavicle 0.000000 -0.000000
lhumerus -77.463799 -44.793999 199.978195
lradius 51.655399
lwrist 17.577681
lhand -23.479200 -40.030800
lfingers 14.250040
lthumb 28.615999 18.943319
rfemur -44.844002 9.236780 54.087399
rtibia 65.030197
rfoot -29.672600 2.390640
rtoes -24.542400
lfemur -35.605400 15.756800 -29.105200
ltibia 129.208801
lfoot -11.341380 21.548201
ltoes -8.549140
358
root 18.535480 34.184601 28.826200 12.846080 15.812340 -4.393140
lowerback -12.008240 -3.606320 -1.631516
upperback -2.534020 -4.831940 5.560620
thorax 4.426020 -2.433120 6.268480
lowerneck -39.592999 -12.235960 -26.759001
upperneck 41.154598 -15.951580 28.188999
head 22.163601 -6.188160 12.332900
rclavicle 0.000000 0.000000
rhumerus -81.197601 28.124399 -170.214401
rradius 80.149200
rwrist -45.915199
rhand -60.379002 -54.328201
rfingers 14.250040
rthumb -7.000880 -114.230202
lclavicle 0.000000 0.000000
lhumerus -79.305801 -45.191399 200.138000
lradius 52.924400
lwrist 18.573400
lhand -27.571800 -41.365002
lfingers 14.250040
lthumb 24.671200 17.867300
rfemur -43.449200 9.608880 54.231201
rtibia 64.531403
rfoot -30.186399 2.506840
rtoes -24.874399
lfemur -37.994801 15.344040 -30.059401
ltibia 129.601395
lfoot -13.224960 21.599199
ltoes -9.510480
359
root 18.531441 34.179001 29.059799 12.816700 15.313360 -4.824680
lowerback -11.601880 -3.295020 -1.246240
upperback -2.872860 -4.432300 5.672000
thorax 3.815280 -2.223420 6.215520
lowerneck -38.797798 -12.156100 -27.042999
upperneck 41.180801 -15.914620 28.429800
head 22.038601 -6.197520 12.487340
rclavicle -0.000000 -0.000000
rhumerus -81.017799 28.997000 -170.355392
rradius 80.943398
rwrist -45.777802
rhand -61.088200 -55.996799
rfingers 14.250040
rthumb -7.685760 -115.887001
lclavicle -0.000000 -0.000000
lhumerus -81.286598 -44.320801 199.978195
lradius 53.672001
lwrist 18.117380
lhand -29.302999 -42.534599
lfingers 14.250040
lthumb 23.001600 16.794380
rfemur -42.391998 9.963480 54.933601
rtibia 64.050598
rfoot -30.696600 2.575060
rtoes -25.069599
lfemur -40.799599 15.252620 -30.349800
ltibia 129.804398
lfoot -14.477960 21.860399
ltoes -10.383460
360
root 18.536341 34.185600 29.284201 12.902840 14.894240 -5.033400
lowerback -11.561000 -3.045860 -1.072546
upperback -2.705060 -4.115660 5.751300
thorax 3.943260 -2.067100 6.222880
lowerneck -39.172798 -12.193880 -27.091999
upperneck 41.230400 -15.909600 28.430000
head 22.130800 -6.184520 12.497500
rclavicle 0.000000 -0.000000
rhumerus -79.466400 29.995399 -170.224594
rradius 81.297600
rwrist -45.697201
rhand -60.764198 -52.373402
rfingers 14.250040
rthumb -7.372860 -112.269203
lclavicle 0.000000 -0.000000
lhumerus -82.139397 -44.034199 199.779800
lradius 53.998798
lwrist 18.904261
lhand -29.766001 -43.597801
lfingers 14.250040
lthumb 22.555201 15.755900
rfemur -41.265999 10.335080 55.299400
rtibia 63.624401
rfoot -31.606001 2.937320
rtoes -24.610001
lfemur -43.813000 14.882360 -30.825800
ltibia 129.767807
lfoot -15.649480 21.816601
ltoes -8.407980
361
root 18.555700 34.199600 29.541800 12.933960 14.576060 -4.577640
lowerback -11.958760 -2.775280 -1.317548
upperback -2.044060 -3.754160 5.568040
thorax 4.826900 -1.900696 6.182760
lowerneck -40.767601 -12.375620 -26.583200
upperneck 41.729000 -15.944620 27.538000
head 22.559601 -6.197200 12.068540
rclavicle 0.000000 0.000000
rhumerus -77.330002 31.181200 -169.906204
rradius 82.093002
rwrist -46.161400
rhand -60.151199 -51.118000
rfingers 14.250040
rthumb -6.780900 -111.023598
lclavicle 0.000000 0.000000
lhumerus -82.574402 -44.549801 199.753403
lradius 54.690800
lwrist 20.977800
lhand -30.649799 -44.379200
lfingers 14.250040
lthumb 21.702600 15.020020
rfemur -39.899799 10.315320 54.945599
rtibia 63.205799
rfoot -32.529202 3.359000
rtoes -24.787001
lfemur -46.449799 14.046960 -32.087799
ltibia 129.475403
lfoot -17.103439 21.929199
ltoes -7.464600
362
root 18.558981 34.186001 29.789200 13.128920 14.155100 -4.281540
lowerback -11.756080 -2.727420 -1.594574
upperback -2.782560 -3.651300 5.365320
thorax 3.948220 -1.836174 6.149980
lowerneck -39.159199 -11.881460 -25.799801
upperneck 42.185799 -15.521940 26.729401
head 22.271601 -6.089800 11.715940
rclavicle 0.000000 0.000000
rhumerus -78.082199 32.643600 -170.733398
rradius 83.515198
rwrist -46.539600
rhand -60.376202 -52.834999
rfingers 14.250040
rthumb -6.998240 -112.737000
lclavicle 0.000000 0.000000
lhumerus -85.597397 -43.222401 199.584595
lradius 55.795799
lwrist 22.012400
lhand -30.726999 -44.342999
lfingers 14.250040
lthumb 21.628201 15.060280
rfemur -38.932400 10.591460 54.835602
rtibia 62.855598
rfoot -33.267399 3.154140
rtoes -26.083599
lfemur -49.282799 13.479840 -33.106602
ltibia 129.145203
lfoot -18.744400 22.111200
ltoes -9.781320
363
root 18.563120 34.167400 30.013000 13.276120 13.602480 -4.642220
lowerback -11.377400 -2.428160 -1.101748
upperback -3.168980 -3.268700 5.283500
thorax 3.300060 -1.634196 5.828200
lowerneck -38.868999 -11.916700 -25.697201
upperneck 42.507198 -15.699500 26.817801
head 22.362200 -6.161380 11.716960
rclavicle 0.000000 -0.000000
rhumerus -77.815399 33.293800 -171.072800
rradius 84.565201
rwrist -46.531399
rhand -60.933399 -53.384998
rfingers 14.250040
rthumb -7.536240 -113.278000
lclavicle 0.000000 -0.000000
lhumerus -87.198601 -42.091400 198.659195
lradius 56.386002
lwrist 21.519400
lhand -29.285200 -44.089001
lfingers 14.250040
lthumb 23.018801 15.239040
rfemur -37.955002 11.193740 55.357800
rtibia 62.653400
rfoot -34.555801 3.178600
rtoes -28.448400
lfemur -52.150398 13.348400 -33.369202
ltibia 128.702393
lfoot -20.114799 22.152800
ltoes -11.313520
364
root 18.569321 34.161400 30.254400 13.042360 12.922060 -5.010660
lowerback -11.352980 -2.129740 -0.701546
upperback -2.849280 -2.901420 5.324720
thorax 3.586380 -1.454172 5.669280
lowerneck -39.852600 -12.007440 -25.006599
upperneck 43.182999 -15.742240 25.855400
head 22.731600 -6.194920 11.237180
rclavicle -0.000000 -0.000000
rhumerus -76.452003 34.167801 -171.022202
rradius 85.128403
rwrist -46.384399
rhand -60.890800 -55.017200
rfingers 14.250040
rthumb -7.495220 -114.910599
lclavicle -0.000000 -0.000000
lhumerus -87.697998 -41.041599 197.589401
lradius 56.652802
lwrist 20.959400
lhand -28.035601 -44.259800
lfingers 14.250040
lthumb 24.223801 14.999120
rfemur -36.720200 11.870040 55.907600
rtibia 62.588001
rfoot -35.590599 3.366240
rtoes -30.017401
lfemur -54.396599 13.370820 -33.538399
ltibia 127.938400
lfoot -21.584400 22.014000
ltoes -10.834480
365
root 18.569880 34.148800 30.504601 12.742720 12.293220 -4.920880
lowerback -11.865820 -1.835660 -0.968016
upperback -1.791328 -2.524940 5.434900
thorax 4.951160 -1.286900 5.947920
lowerneck -41.812199 -12.320200 -24.801800
upperneck 43.649601 -15.840700 25.024799
head 23.251801 -6.248660 10.867000
rclavicle -0.000000 -0.000000
rhumerus -73.530197 34.955399 -170.149399
rradius 85.109596
rwrist -46.254398
rhand -59.894001 -57.399601
rfingers 14.250040
rthumb -6.532520 -117.308998
lclavicle -0.000000 -0.000000
lhumerus -87.037201 -40.379002 196.927399
lradius 56.863800
lwrist 21.784800
lhand -28.042400 -44.494400
lfingers 14.250040
lthumb 24.217400 14.764840
rfemur -35.496201 12.057760 56.066799
rtibia 62.456600
rfoot -35.588402 3.727460
rtoes -26.796000
lfemur -56.404800 13.086520 -34.114601
ltibia 126.909401
lfoot -24.084999 22.005199
ltoes -9.922160
366
root 18.576759 34.137402 30.746799 12.690760 11.755540 -4.470500
lowerback -12.034100 -1.578880 -1.469634
upperback -1.357336 -2.158600 5.354040
thorax 5.480160 -1.117234 6.174040
lowerneck -41.185001 -12.377880 -26.215799
upperneck 42.505001 -15.893640 26.791599
head 22.865200 -6.211040 11.751800
rclavicle -0.000000 -0.000000
rhumerus -71.565804 35.331600 -169.535004
rradius 85.068199
rwrist -45.975399
rhand -59.165401 -56.922199
rfingers 14.250040
rthumb -5.828860 -116.842003
lclavicle -0.000000 -0.000000
lhumerus -87.454597 -39.959599 196.676193
lradius 57.122002
lwrist 22.810600
lhand -28.226000 -44.594601
lfingers 14.250040
lthumb 24.040400 14.675140
rfemur -34.263000 12.002580 55.731998
rtibia 62.195202
rfoot -35.737000 4.186160
rtoes -23.300200
lfemur -58.614601 12.680440 -35.121399
ltibia 125.664001
lfoot -26.938601 22.557600
ltoes -7.515000
367
root 18.585199 34.122002 30.968399 12.786900 11.156260 -5.143040
lowerback -11.670200 -1.214136 -0.742310
upperback -1.802204 -1.708024 5.429620
thorax 4.781180 -0.875764 5.882680
lowerneck -38.938400 -12.065140 -27.211000
upperneck 41.192402 -15.712580 28.452600
head 22.045000 -6.109360 12.560160
rclavicle 0.000000 -0.000000
rhumerus -71.620201 35.512199 -169.606201
rradius 85.969002
rwrist -45.735401
rhand -59.978199 -52.959999
rfingers 14.250040
rthumb -6.613820 -112.868202
lclavicle 0.000000 -0.000000
lhumerus -89.462196 -39.764801 196.877594
lradius 57.550999
lwrist 24.300200
lhand -28.384600 -44.536400
lfingers 14.250040
lthumb 23.887199 14.742100
rfemur -33.389400 12.305840 56.605999
rtibia 61.874802
rfoot -36.446400 3.829720
rtoes -27.959200
lfemur -61.250401 12.724820 -34.884800
ltibia 124.396004
lfoot -26.963200 23.104601
ltoes -11.214360
